<svg width="24" height="24" viewBox="0 0 24 24" fill="none" xmlns="http://www.w3.org/2000/svg">
<mask id="mask0_9151_30509" style="mask-type:alpha" maskUnits="userSpaceOnUse" x="0" y="0" width="24" height="24">
<rect width="24" height="24" fill="#D9D9D9"/>
</mask>
<g mask="url(#mask0_9151_30509)">
<path d="M13.2905 12L9.21725 7.92701C9.07892 7.78851 9.00808 7.61443 9.00475 7.40476C9.00158 7.19526 9.07242 7.01801 9.21725 6.87301C9.36225 6.72818 9.53792 6.65576 9.74425 6.65576C9.95058 6.65576 10.1262 6.72818 10.2712 6.87301L14.7655 11.3673C14.859 11.4609 14.925 11.5597 14.9635 11.6635C15.002 11.7673 15.0213 11.8795 15.0213 12C15.0213 12.1205 15.002 12.2327 14.9635 12.3365C14.925 12.4403 14.859 12.5391 14.7655 12.6328L10.2712 17.127C10.1327 17.2653 9.95867 17.3362 9.749 17.3395C9.5395 17.3427 9.36225 17.2718 9.21725 17.127C9.07242 16.982 9 16.8063 9 16.6C9 16.3937 9.07242 16.218 9.21725 16.073L13.2905 12Z" fill="#1C1B1F"/>
</g>
</svg>
