<svg width="14" height="15" viewBox="0 0 14 15" fill="none" xmlns="http://www.w3.org/2000/svg">
<path d="M6.9998 8.90078L2.0998 13.8008C1.91647 13.9841 1.68314 14.0758 1.3998 14.0758C1.11647 14.0758 0.883138 13.9841 0.699805 13.8008C0.516471 13.6174 0.424805 13.3841 0.424805 13.1008C0.424805 12.8174 0.516471 12.5841 0.699805 12.4008L5.5998 7.50078L0.699805 2.60078C0.516471 2.41745 0.424805 2.18411 0.424805 1.90078C0.424805 1.61745 0.516471 1.38411 0.699805 1.20078C0.883138 1.01745 1.11647 0.925781 1.3998 0.925781C1.68314 0.925781 1.91647 1.01745 2.0998 1.20078L6.9998 6.10078L11.8998 1.20078C12.0831 1.01745 12.3165 0.925781 12.5998 0.925781C12.8831 0.925781 13.1165 1.01745 13.2998 1.20078C13.4831 1.38411 13.5748 1.61745 13.5748 1.90078C13.5748 2.18411 13.4831 2.41745 13.2998 2.60078L8.3998 7.50078L13.2998 12.4008C13.4831 12.5841 13.5748 12.8174 13.5748 13.1008C13.5748 13.3841 13.4831 13.6174 13.2998 13.8008C13.1165 13.9841 12.8831 14.0758 12.5998 14.0758C12.3165 14.0758 12.0831 13.9841 11.8998 13.8008L6.9998 8.90078Z" fill="black"/>
</svg>
