<svg width="12" height="8" viewBox="0 0 12 8" fill="none" xmlns="http://www.w3.org/2000/svg">
<path d="M5.45994 0.289939C5.36698 0.196211 5.25637 0.121816 5.13452 0.0710478C5.01266 0.0202791 4.88195 -0.00585938 4.74994 -0.00585938C4.61793 -0.00585938 4.48722 0.0202791 4.36536 0.0710478C4.2435 0.121816 4.1329 0.196211 4.03994 0.289939L1.03994 3.28994C0.946211 3.3829 0.871816 3.4935 0.821048 3.61536C0.770279 3.73722 0.744141 3.86793 0.744141 3.99994C0.744141 4.13195 0.770279 4.26266 0.821048 4.38452C0.871816 4.50637 0.946211 4.61698 1.03994 4.70994L4.03994 7.70994C4.1329 7.80367 4.2435 7.87806 4.36536 7.92883C4.48722 7.9796 4.61793 8.00574 4.74994 8.00574C4.88195 8.00574 5.01266 7.9796 5.13452 7.92883C5.25637 7.87806 5.36698 7.80367 5.45994 7.70994C5.55367 7.61698 5.62806 7.50637 5.67883 7.38452C5.7296 7.26266 5.75574 7.13195 5.75574 6.99994C5.75574 6.86793 5.7296 6.73722 5.67883 6.61536C5.62806 6.4935 5.55367 6.3829 5.45994 6.28994L3.15994 3.99994L5.45994 1.70994C5.55367 1.61698 5.62806 1.50638 5.67883 1.38452C5.7296 1.26266 5.75574 1.13195 5.75574 0.999939C5.75574 0.867927 5.7296 0.737221 5.67883 0.615362C5.62806 0.493503 5.55367 0.382902 5.45994 0.289939ZM8.65994 3.99994L10.9999 1.70994C11.1882 1.52164 11.294 1.26624 11.294 0.999939C11.294 0.733637 11.1882 0.478243 10.9999 0.289939C10.8116 0.101635 10.5562 -0.00415277 10.2899 -0.00415277C10.0236 -0.00415278 9.76824 0.101635 9.57994 0.289939L6.57994 3.28994C6.48621 3.3829 6.41182 3.4935 6.36105 3.61536C6.31028 3.73722 6.28414 3.86793 6.28414 3.99994C6.28414 4.13195 6.31028 4.26266 6.36105 4.38452C6.41182 4.50637 6.48621 4.61698 6.57994 4.70994L9.57994 7.70994C9.6729 7.80367 9.7835 7.87806 9.90536 7.92883C10.0272 7.9796 10.1579 8.00574 10.2899 8.00574C10.422 8.00574 10.5527 7.9796 10.6745 7.92883C10.7964 7.87806 10.907 7.80367 10.9999 7.70994C11.0937 7.61698 11.1681 7.50637 11.2188 7.38452C11.2696 7.26266 11.2957 7.13195 11.2957 6.99994C11.2957 6.86793 11.2696 6.73722 11.2188 6.61536C11.1681 6.4935 11.0937 6.3829 10.9999 6.28994L8.65994 3.99994Z" fill="black"/>
</svg>
